name Walk3.mot
datacolumns 19
datarows 20
range 1.67900000 1.69800000
endheader

                time	   L_ground_force_vx	   L_ground_force_vy	   L_ground_force_vz	   L_ground_force_px	   L_ground_force_py	   L_ground_force_pz	   R_ground_force_vx	   R_ground_force_vy	   R_ground_force_vz	   R_ground_force_px	   R_ground_force_py	   R_ground_force_pz	   L_ground_torque_x	   L_ground_torque_y	   L_ground_torque_z	   R_ground_torque_x	   R_ground_torque_y	   R_ground_torque_z	
          1.67900000	          0.00000000	          0.00000000	          0.00000000	          0.00000000	          0.00000000	          0.00000000	         16.36065830	        524.21251972	         33.99147326	         -0.33477700	          0.00000000	         -0.06053605	          0.00000000	          0.00000000	          0.00000000	          0.00000000	          0.60564967	          0.00000000	
          1.68000000	          0.00000000	          0.00000000	          0.00000000	          0.00000000	          0.00000000	          0.00000000	         16.67200065	        525.51539681	         34.12683574	         -0.33441012	          0.00000000	         -0.06059153	          0.00000000	          0.00000000	          0.00000000	          0.00000000	          0.59501916	          0.00000000	
          1.68100000	          0.00000000	          0.00000000	          0.00000000	          0.00000000	          0.00000000	          0.00000000	         17.01224440	        526.88937934	         34.26730422	         -0.33397370	          0.00000000	         -0.06062162	          0.00000000	          0.00000000	          0.00000000	          0.00000000	          0.58477473	          0.00000000	
          1.68200000	          0.00000000	          0.00000000	          0.00000000	          0.00000000	          0.00000000	          0.00000000	         17.36784369	        528.34700772	         34.41255454	         -0.33351845	          0.00000000	         -0.06063634	          0.00000000	          0.00000000	          0.00000000	          0.00000000	          0.57449222	          0.00000000	
          1.68300000	          0.00000000	          0.00000000	          0.00000000	          0.00000000	          0.00000000	          0.00000000	         17.71354591	        529.84657974	         34.55640667	         -0.33311002	          0.00000000	         -0.06064125	          0.00000000	          0.00000000	          0.00000000	          0.00000000	          0.56054277	          0.00000000	
          1.68400000	          0.00000000	          0.00000000	          0.00000000	          0.00000000	          0.00000000	          0.00000000	         18.03033364	        531.32459751	         34.69045787	         -0.33279438	          0.00000000	         -0.06063973	          0.00000000	          0.00000000	          0.00000000	          0.00000000	          0.53692020	          0.00000000	
          1.68500000	          0.00000000	          0.00000000	          0.00000000	          0.00000000	          0.00000000	          0.00000000	         18.32002858	        532.75324137	         34.81354069	         -0.33256853	          0.00000000	         -0.06064153	          0.00000000	          0.00000000	          0.00000000	          0.00000000	          0.50366658	          0.00000000	
          1.68600000	          0.00000000	          0.00000000	          0.00000000	          0.00000000	          0.00000000	          0.00000000	         18.60048980	        534.15405341	         34.93374966	         -0.33238559	          0.00000000	         -0.06066930	          0.00000000	          0.00000000	          0.00000000	          0.00000000	          0.47377317	          0.00000000	
          1.68700000	          0.00000000	          0.00000000	          0.00000000	          0.00000000	          0.00000000	          0.00000000	         18.89012199	        535.56543028	         35.06171820	         -0.33219536	          0.00000000	         -0.06075087	          0.00000000	          0.00000000	          0.00000000	          0.00000000	          0.46433081	          0.00000000	
          1.68800000	          0.00000000	          0.00000000	          0.00000000	          0.00000000	          0.00000000	          0.00000000	         19.19940434	        537.01353829	         35.20373001	         -0.33197274	          0.00000000	         -0.06089524	          0.00000000	          0.00000000	          0.00000000	          0.00000000	          0.48016534	          0.00000000	
          1.68900000	          0.00000000	          0.00000000	          0.00000000	          0.00000000	          0.00000000	          0.00000000	         19.52739455	        538.50335896	         35.35519102	         -0.33171254	          0.00000000	         -0.06106875	          0.00000000	          0.00000000	          0.00000000	          0.00000000	          0.51020955	          0.00000000	
          1.69000000	          0.00000000	          0.00000000	          0.00000000	          0.00000000	          0.00000000	          0.00000000	         19.86212131	        540.02604067	         35.50379676	         -0.33141934	          0.00000000	         -0.06121281	          0.00000000	          0.00000000	          0.00000000	          0.00000000	          0.53764242	          0.00000000	
          1.69100000	          0.00000000	          0.00000000	          0.00000000	          0.00000000	          0.00000000	          0.00000000	         20.19179725	        541.57231552	         35.64516841	         -0.33110839	          0.00000000	         -0.06129183	          0.00000000	          0.00000000	          0.00000000	          0.00000000	          0.55124693	          0.00000000	
          1.69200000	          0.00000000	          0.00000000	          0.00000000	          0.00000000	          0.00000000	          0.00000000	         20.51482745	        543.14364319	         35.79022042	         -0.33080395	          0.00000000	         -0.06131104	          0.00000000	          0.00000000	          0.00000000	          0.00000000	          0.54906518	          0.00000000	
          1.69300000	          0.00000000	          0.00000000	          0.00000000	          0.00000000	          0.00000000	          0.00000000	         20.83394263	        544.75040178	         35.95361777	         -0.33052703	          0.00000000	         -0.06129202	          0.00000000	          0.00000000	          0.00000000	          0.00000000	          0.53420555	          0.00000000	
          1.69400000	          0.00000000	          0.00000000	          0.00000000	          0.00000000	          0.00000000	          0.00000000	         21.14840280	        546.38918612	         36.13631970	         -0.33028304	          0.00000000	         -0.06125442	          0.00000000	          0.00000000	          0.00000000	          0.00000000	          0.51070859	          0.00000000	
          1.69500000	          0.00000000	          0.00000000	          0.00000000	          0.00000000	          0.00000000	          0.00000000	         21.45581112	        548.03163102	         36.32358868	         -0.33005998	          0.00000000	         -0.06123085	          0.00000000	          0.00000000	          0.00000000	          0.00000000	          0.48329308	          0.00000000	
          1.69600000	          0.00000000	          0.00000000	          0.00000000	          0.00000000	          0.00000000	          0.00000000	         21.75262823	        549.64813164	         36.50161073	         -0.32983602	          0.00000000	         -0.06126519	          0.00000000	          0.00000000	          0.00000000	          0.00000000	          0.45716256	          0.00000000	
          1.69700000	          0.00000000	          0.00000000	          0.00000000	          0.00000000	          0.00000000	          0.00000000	         22.03331093	        551.23625637	         36.67098627	         -0.32959768	          0.00000000	         -0.06136610	          0.00000000	          0.00000000	          0.00000000	          0.00000000	          0.43496873	          0.00000000	
          1.69800000	          0.00000000	          0.00000000	          0.00000000	          0.00000000	          0.00000000	          0.00000000	         22.29602886	        552.82606965	         36.84308855	         -0.32935552	          0.00000000	         -0.06148577	          0.00000000	          0.00000000	          0.00000000	          0.00000000	          0.41421180	          0.00000000	
